<svg width="124" height="124" viewBox="0 0 124 124" fill="none" xmlns="http://www.w3.org/2000/svg">
<rect width="124" height="124" rx="16" fill="#06B6D4"/>
<rect x="22" y="42" width="31" height="68" rx="7" fill="white"/>
<rect x="71" y="42" width="31" height="39" rx="7" fill="white"/>
<path d="M59.5079 6.65591C61.0391 5.78136 62.9296 5.78136 64.4765 6.65591L91.319 21.9761L91.9909 22.2415V22.3821L99.4749 26.6611C101.444 27.7855 102.412 30.0968 101.834 32.2832C101.256 34.4695 99.2718 36 97.0063 36H26.9937C24.7282 36 22.7439 34.4695 22.1658 32.2832C21.5877 30.0968 22.5564 27.7855 24.5251 26.6611L31.9935 22.3821V22.2415L32.681 21.9917L59.5079 6.65591Z" fill="white"/>
</svg>
