<svg width="124" height="137" viewBox="0 0 124 137" fill="none" xmlns="http://www.w3.org/2000/svg">
<path d="M64.3379 136.344C63.2087 137.219 61.8144 137.219 60.6736 136.344L40.8772 121.024L40.3817 120.758L40.3817 120.618L34.8622 116.339C33.4104 115.214 32.6959 112.903 33.1223 110.717C33.5486 108.53 35.012 107 36.6829 107L88.3171 107C89.988 107 91.4514 108.53 91.8777 110.717C92.3041 112.903 91.5896 115.214 90.1378 116.339L84.6298 120.618L84.6298 120.758L84.1228 121.008L64.3379 136.344Z" fill="#06B6D4"/>
<path d="M0 16C0 7.16344 7.16344 0 16 0H108C116.837 0 124 7.16344 124 16V108C124 116.837 116.837 124 108 124H75.5C69.4286 124 64.7395 124 60 124C55.5939 124 51.1443 124 45.5 124H16C7.16344 124 0 116.837 0 108V16Z" fill="#06B6D4"/>
<rect x="22" y="42" width="31" height="68" rx="7" fill="white"/>
<rect x="71" y="42" width="31" height="39" rx="7" fill="white"/>
<path d="M59.5079 6.65591C61.0391 5.78136 62.9296 5.78136 64.4765 6.65591L91.319 21.9761L91.9909 22.2415V22.3821L99.4749 26.6611C101.444 27.7855 102.412 30.0968 101.834 32.2832C101.256 34.4695 99.2718 36 97.0063 36H26.9937C24.7282 36 22.7439 34.4695 22.1658 32.2832C21.5877 30.0968 22.5564 27.7855 24.5251 26.6611L31.9935 22.3821V22.2415L32.681 21.9917L59.5079 6.65591Z" fill="white"/>
</svg>
