<svg width="802" height="107" viewBox="0 0 802 107" fill="none" xmlns="http://www.w3.org/2000/svg">
<path d="M69.61 43.12C69.61 48.4067 68.3967 53.26 65.97 57.68C63.5433 62.0133 59.8167 65.5233 54.79 68.21C49.7633 70.8967 43.5233 72.24 36.07 72.24H22.29V105H0.0600004V13.74H36.07C43.35 13.74 49.5033 14.9967 54.53 17.51C59.5567 20.0233 63.3267 23.49 65.84 27.91C68.3533 32.33 69.61 37.4 69.61 43.12ZM34.38 54.56C38.6267 54.56 41.79 53.5633 43.87 51.57C45.95 49.5767 46.99 46.76 46.99 43.12C46.99 39.48 45.95 36.6633 43.87 34.67C41.79 32.6767 38.6267 31.68 34.38 31.68H22.29V54.56H34.38ZM76.763 68.6C76.763 61.1467 78.1497 54.6033 80.923 48.97C83.783 43.3367 87.6397 39.0033 92.493 35.97C97.3464 32.9367 102.763 31.42 108.743 31.42C113.856 31.42 118.32 32.46 122.133 34.54C126.033 36.62 129.023 39.35 131.103 42.73V32.46H153.333V105H131.103V94.73C128.936 98.11 125.903 100.84 122.003 102.92C118.19 105 113.726 106.04 108.613 106.04C102.72 106.04 97.3464 104.523 92.493 101.49C87.6397 98.37 83.783 93.9933 80.923 88.36C78.1497 82.64 76.763 76.0533 76.763 68.6ZM131.103 68.73C131.103 63.1833 129.543 58.8067 126.423 55.6C123.39 52.3933 119.663 50.79 115.243 50.79C110.823 50.79 107.053 52.3933 103.933 55.6C100.9 58.72 99.383 63.0533 99.383 68.6C99.383 74.1467 100.9 78.5667 103.933 81.86C107.053 85.0667 110.823 86.67 115.243 86.67C119.663 86.67 123.39 85.0667 126.423 81.86C129.543 78.6533 131.103 74.2767 131.103 68.73ZM209.845 86.15V105H198.535C190.475 105 184.192 103.05 179.685 99.15C175.179 95.1633 172.925 88.7067 172.925 79.78V50.92H164.085V32.46H172.925V14.78H195.155V32.46H209.715V50.92H195.155V80.04C195.155 82.2067 195.675 83.7667 196.715 84.72C197.755 85.6733 199.489 86.15 201.915 86.15H209.845ZM244.458 44.55C247.058 40.5633 250.308 37.4433 254.208 35.19C258.108 32.85 262.441 31.68 267.208 31.68V55.21H261.098C255.551 55.21 251.391 56.4233 248.618 58.85C245.845 61.19 244.458 65.35 244.458 71.33V105H222.228V32.46H244.458V44.55ZM289.013 24.92C285.113 24.92 281.907 23.7933 279.393 21.54C276.967 19.2 275.753 16.34 275.753 12.96C275.753 9.49333 276.967 6.63333 279.393 4.37999C281.907 2.03999 285.113 0.869992 289.013 0.869992C292.827 0.869992 295.947 2.03999 298.373 4.37999C300.887 6.63333 302.143 9.49333 302.143 12.96C302.143 16.34 300.887 19.2 298.373 21.54C295.947 23.7933 292.827 24.92 289.013 24.92ZM300.063 32.46V105H277.833V32.46H300.063ZM408.733 31.68C417.747 31.68 424.897 34.41 430.183 39.87C435.557 45.33 438.243 52.9133 438.243 62.62V105H416.143V65.61C416.143 60.93 414.887 57.3333 412.373 54.82C409.947 52.22 406.567 50.92 402.233 50.92C397.9 50.92 394.477 52.22 391.963 54.82C389.537 57.3333 388.323 60.93 388.323 65.61V105H366.223V65.61C366.223 60.93 364.967 57.3333 362.453 54.82C360.027 52.22 356.647 50.92 352.313 50.92C347.98 50.92 344.557 52.22 342.043 54.82C339.617 57.3333 338.403 60.93 338.403 65.61V105H316.173V32.46H338.403V41.56C340.657 38.5267 343.603 36.1433 347.243 34.41C350.883 32.59 355 31.68 359.593 31.68C365.053 31.68 369.907 32.85 374.153 35.19C378.487 37.53 381.867 40.8667 384.293 45.2C386.807 41.2133 390.23 37.9633 394.563 35.45C398.897 32.9367 403.62 31.68 408.733 31.68ZM486.81 106.04C479.704 106.04 473.29 104.523 467.57 101.49C461.937 98.4567 457.474 94.1233 454.18 88.49C450.974 82.8567 449.37 76.27 449.37 68.73C449.37 61.2767 451.017 54.7333 454.31 49.1C457.604 43.38 462.11 39.0033 467.83 35.97C473.55 32.9367 479.964 31.42 487.07 31.42C494.177 31.42 500.59 32.9367 506.31 35.97C512.03 39.0033 516.537 43.38 519.83 49.1C523.124 54.7333 524.77 61.2767 524.77 68.73C524.77 76.1833 523.08 82.77 519.7 88.49C516.407 94.1233 511.857 98.4567 506.05 101.49C500.33 104.523 493.917 106.04 486.81 106.04ZM486.81 86.8C491.057 86.8 494.654 85.24 497.6 82.12C500.634 79 502.15 74.5367 502.15 68.73C502.15 62.9233 500.677 58.46 497.73 55.34C494.87 52.22 491.317 50.66 487.07 50.66C482.737 50.66 479.14 52.22 476.28 55.34C473.42 58.3733 471.99 62.8367 471.99 68.73C471.99 74.5367 473.377 79 476.15 82.12C479.01 85.24 482.564 86.8 486.81 86.8ZM569.194 84.2L584.924 32.46H608.584L582.844 105H555.414L529.674 32.46H553.464L569.194 84.2ZM629.121 24.92C625.221 24.92 622.014 23.7933 619.501 21.54C617.074 19.2 615.861 16.34 615.861 12.96C615.861 9.49333 617.074 6.63333 619.501 4.37999C622.014 2.03999 625.221 0.869992 629.121 0.869992C632.934 0.869992 636.054 2.03999 638.481 4.37999C640.994 6.63333 642.251 9.49333 642.251 12.96C642.251 16.34 640.994 19.2 638.481 21.54C636.054 23.7933 632.934 24.92 629.121 24.92ZM640.171 32.46V105H617.941V32.46H640.171ZM678.511 8.8V105H656.281V8.8H678.511ZM716.851 8.8V105H694.621V8.8H716.851ZM801.34 67.56C801.34 69.64 801.21 71.8067 800.95 74.06H750.64C750.987 78.5667 752.417 82.0333 754.93 84.46C757.53 86.8 760.694 87.97 764.42 87.97C769.967 87.97 773.824 85.63 775.99 80.95H799.65C798.437 85.7167 796.227 90.0067 793.02 93.82C789.9 97.6333 785.957 100.623 781.19 102.79C776.424 104.957 771.094 106.04 765.2 106.04C758.094 106.04 751.767 104.523 746.22 101.49C740.674 98.4567 736.34 94.1233 733.22 88.49C730.1 82.8567 728.54 76.27 728.54 68.73C728.54 61.19 730.057 54.6033 733.09 48.97C736.21 43.3367 740.544 39.0033 746.09 35.97C751.637 32.9367 758.007 31.42 765.2 31.42C772.22 31.42 778.46 32.8933 783.92 35.84C789.38 38.7867 793.627 42.99 796.66 48.45C799.78 53.91 801.34 60.28 801.34 67.56ZM778.59 61.71C778.59 57.8967 777.29 54.8633 774.69 52.61C772.09 50.3567 768.84 49.23 764.94 49.23C761.214 49.23 758.05 50.3133 755.45 52.48C752.937 54.6467 751.377 57.7233 750.77 61.71H778.59Z" fill="white"/>
</svg>
