<svg width="576" height="512" viewBox="0 0 576 512" fill="none" xmlns="http://www.w3.org/2000/svg">
<path d="M516.307 258.638C531.479 258.638 544.865 246.681 544.865 231.222C545.758 223.535 542.188 216.702 535.048 210.723L487.928 171.008V67.6622C487.928 52.5446 475.166 40.3311 459.37 40.3311H430.812C415.016 40.3311 402.254 52.5446 402.254 67.6622V99.0075L307.209 18.9787C301.855 14.7082 294.715 13 288.468 13C282.221 13 275.082 13.8541 268.834 19.8328L39.9244 210.723C33.6773 216.702 31 223.535 31 231.222C31 246.595 43.4941 258.638 59.558 258.638H88.116V318.169C88.0267 318.937 88.0267 319.706 88.0267 320.56V416.133C88.0267 435.009 104.001 450.297 123.724 450.297H138.003C139.074 450.297 140.145 450.212 141.216 450.126C142.555 450.212 143.893 450.297 145.232 450.297H173.79H195.208C214.931 450.297 230.906 450.126 230.906 450.126C230.906 450.126 239.529 450.126 255.325 450.126L288.468 499L325.073 450.126C317.934 450.126 345.138 450.297 345.138 450.297C345.138 450.297 361.112 450.297 380.835 450.297H402.254H431.258C432.507 450.297 433.757 450.297 435.006 450.212C435.988 450.297 436.97 450.297 437.951 450.297H452.23C471.953 450.297 487.928 435.009 487.928 416.133V402.297C488.196 400.076 488.374 397.77 488.374 395.379L487.749 258.553H516.307V258.638Z" fill="#F6E05E"/>
<path d="M278.846 106.379C284.472 103.207 291.42 103.207 297.104 106.379L395.743 161.943L398.212 162.906V163.416L425.714 178.936C432.948 183.014 436.508 191.396 434.383 199.326C432.259 207.256 424.967 212.807 416.642 212.807H159.365C151.04 212.807 143.748 207.256 141.624 199.326C139.499 191.396 143.059 183.014 150.293 178.936L177.738 163.416V162.906L180.264 162L278.846 106.379ZM177.738 230.875H214.483V339.625H237.449V230.875H274.195V339.625H301.754V230.875H338.5V339.625H361.466V230.875H398.212V342.061C398.556 342.23 398.901 342.457 399.245 342.684L426.805 360.809C433.522 365.227 436.565 373.496 434.211 381.143C431.857 388.789 424.68 394 416.585 394H159.365C151.269 394 144.15 388.789 141.796 381.143C139.442 373.496 142.427 365.227 149.202 360.809L176.762 342.684C177.106 342.457 177.451 342.287 177.795 342.061V230.875H177.738Z" fill="white"/>
</svg>
